<svg class="diagram-root" style="background: #f5f6f6" xmlns="http://www.w3.org/2000/svg" xmlns:xlink="http://www.w3.org/1999/xlink"><style>.diagram-root { font-family: "Helvetica Neue", sans-serif; font-size: 12px; } .t { overflow: visible; } .t-bg { y: 40; fill: #fff;   } .th { fill: #005aa0;   } .tht { fill: #fff; font-size: 14px;  } .tf { fill: #323c46; overflow: visible; } .tf.pk { fill: #005aa0; font-weight: bold; } .tf.fk { font-weight: bold; } .ty { fill: #adb1b5; font-weight: normal; text-anchor: end; } .r { fill: transparent; stroke: #c3c3c3; stroke-width: 1; } .l { stroke: 1; } .i { fill: #c2c7ce; stroke: #c2c7ce; } .i.ix { fill: #afb3b6; stroke: #000; } .fa { fill: transparent; overflow: visible; } .fa .bg.hover { fill: #f7f7f7; } .c { cy: 12; r: 4; stroke: #d2d2dc; fill: #d2d2dc; } .hr { fill: transparent; stroke: #323c46; stroke-opacity: 0.035; stroke-width: 13; } .dc { stroke: #fa5a3c; fill: #fa5a3c; } .x { stroke: white; stroke-width: 1; } .hl .th { fill: #1b9bff; } .hl .tht {  } .fhl .bg { fill: #e7f4ff; } .fhls .bg {  } .r.hl { stroke: #1b9bff; } .dim { opacity: 0.25; }</style><g class="drawing-wrapper" transform="translate(-34.4271428571428, -136.6666666666669) scale(1,1)"><g class="rs"><path d="M 436.44 322.47285714285715 m -1, 0 a 1,1 0 1,0 2,0 a 1,1 0 1,0 -2,0 M 436.44 322.47285714285715 m -0.5, 0 a 0.5,0.5 0 1,0 1,0 a 0.5,0.5 0 1,0 -1,0  M436.44 322.47285714285715 L436.44 322.47285714285715 448.44 322.47285714285715 M442.44 328.47285714285715 L442.44 328.47285714285715 442.44 316.47285714285715 M448.44 322.47285714285715 C 522.152 322.47285714285715, 513.26 515.6442857142856, 463.26 515.6442857142856 M 451.26 515.6442857142856 m -1, 0 a 1,1 0 1,0 2,0 a 1,1 0 1,0 -2,0 M 451.26 515.6442857142856 m -0.5, 0 a 0.5,0.5 0 1,0 1,0 a 0.5,0.5 0 1,0 -1,0  M451.26 515.6442857142856 L451.26 515.6442857142856 463.26 515.6442857142856 M457.26 521.6442857142856 L457.26 521.6442857142856 457.26 509.6442857142856" id="h328463163" class="r"></path><path d="M 177.06 279.86 m -1, 0 a 1,1 0 1,0 2,0 a 1,1 0 1,0 -2,0 M 177.06 279.86 m -0.5, 0 a 0.5,0.5 0 1,0 1,0 a 0.5,0.5 0 1,0 -1,0  M177.06 279.86 L177.06 279.86 189.06 279.86 M 177.06 285.86 m -1, 0 a 1,1 0 1,0 2,0 a 1,1 0 1,0 -2,0 M 177.06 285.86 m -0.5, 0 a 0.5,0.5 0 1,0 1,0 a 0.5,0.5 0 1,0 -1,0  M177.06 285.86 L177.06 285.86 184.06 279.86 177.06 273.86 M 177.06 273.86 m -1, 0 a 1,1 0 1,0 2,0 a 1,1 0 1,0 -2,0 M 177.06 273.86 m -0.5, 0 a 0.5,0.5 0 1,0 1,0 a 0.5,0.5 0 1,0 -1,0  M189.06 279.86 Q 205.23 279.86, 221.39 276.17 T 253.71428571428567 272.47285714285715 M 265.71428571428567 272.47285714285715 m -1, 0 a 1,1 0 1,0 2,0 a 1,1 0 1,0 -2,0 M 265.71428571428567 272.47285714285715 m -0.5, 0 a 0.5,0.5 0 1,0 1,0 a 0.5,0.5 0 1,0 -1,0  M265.71428571428567 272.47285714285715 L265.71428571428567 272.47285714285715 253.71428571428567 272.47285714285715 M259.71428571428567 278.47285714285715 L259.71428571428567 278.47285714285715 259.71428571428567 266.47285714285715" id="h2592984026" class="r"></path><path d="M 177.06 304.86 m -1, 0 a 1,1 0 1,0 2,0 a 1,1 0 1,0 -2,0 M 177.06 304.86 m -0.5, 0 a 0.5,0.5 0 1,0 1,0 a 0.5,0.5 0 1,0 -1,0  M177.06 304.86 L177.06 304.86 189.06 304.86 M 177.06 310.86 m -1, 0 a 1,1 0 1,0 2,0 a 1,1 0 1,0 -2,0 M 177.06 310.86 m -0.5, 0 a 0.5,0.5 0 1,0 1,0 a 0.5,0.5 0 1,0 -1,0  M177.06 310.86 L177.06 310.86 184.06 304.86 177.06 298.86 M 177.06 298.86 m -1, 0 a 1,1 0 1,0 2,0 a 1,1 0 1,0 -2,0 M 177.06 298.86 m -0.5, 0 a 0.5,0.5 0 1,0 1,0 a 0.5,0.5 0 1,0 -1,0  M189.06 304.86 C 239.06 304.86, 241.82 519.1471428571423, 184.46 519.1471428571423 M 172.46 519.1471428571423 m -1, 0 a 1,1 0 1,0 2,0 a 1,1 0 1,0 -2,0 M 172.46 519.1471428571423 m -0.5, 0 a 0.5,0.5 0 1,0 1,0 a 0.5,0.5 0 1,0 -1,0  M172.46 519.1471428571423 L172.46 519.1471428571423 184.46 519.1471428571423 M178.46 525.1471428571423 L178.46 525.1471428571423 178.46 513.1471428571423" id="h2903670343" class="r"></path><path d="M 638.04 248.67 m -1, 0 a 1,1 0 1,0 2,0 a 1,1 0 1,0 -2,0 M 638.04 248.67 m -0.5, 0 a 0.5,0.5 0 1,0 1,0 a 0.5,0.5 0 1,0 -1,0  M638.04 248.67 L638.04 248.67 650.04 248.67 M 638.04 254.67 m -1, 0 a 1,1 0 1,0 2,0 a 1,1 0 1,0 -2,0 M 638.04 254.67 m -0.5, 0 a 0.5,0.5 0 1,0 1,0 a 0.5,0.5 0 1,0 -1,0  M638.04 254.67 L638.04 254.67 645.04 248.67 638.04 242.67 M 638.04 242.67 m -1, 0 a 1,1 0 1,0 2,0 a 1,1 0 1,0 -2,0 M 638.04 242.67 m -0.5, 0 a 0.5,0.5 0 1,0 1,0 a 0.5,0.5 0 1,0 -1,0  M650.04 248.67 Q 673.7 248.67, 697.36 253.67 T 744.67 258.66999999999996 M 756.67 258.66999999999996 m -1, 0 a 1,1 0 1,0 2,0 a 1,1 0 1,0 -2,0 M 756.67 258.66999999999996 m -0.5, 0 a 0.5,0.5 0 1,0 1,0 a 0.5,0.5 0 1,0 -1,0  M756.67 258.66999999999996 L756.67 258.66999999999996 744.67 258.66999999999996 M750.67 264.66999999999996 L750.67 264.66999999999996 750.67 252.66999999999996" id="h2451324670" class="r"></path><path d="M 530 273.66999999999996 m -1, 0 a 1,1 0 1,0 2,0 a 1,1 0 1,0 -2,0 M 530 273.66999999999996 m -0.5, 0 a 0.5,0.5 0 1,0 1,0 a 0.5,0.5 0 1,0 -1,0  M530 273.66999999999996 L530 273.66999999999996 518 273.66999999999996 M 530 279.66999999999996 m -1, 0 a 1,1 0 1,0 2,0 a 1,1 0 1,0 -2,0 M 530 279.66999999999996 m -0.5, 0 a 0.5,0.5 0 1,0 1,0 a 0.5,0.5 0 1,0 -1,0  M530 279.66999999999996 L530 279.66999999999996 523 273.66999999999996 530 267.66999999999996 M 530 267.66999999999996 m -1, 0 a 1,1 0 1,0 2,0 a 1,1 0 1,0 -2,0 M 530 267.66999999999996 m -0.5, 0 a 0.5,0.5 0 1,0 1,0 a 0.5,0.5 0 1,0 -1,0  M518 273.66999999999996 Q 500.61 273.66999999999996, 483.22 273.07 T 448.44 272.47285714285715 M 436.44 272.47285714285715 m -1, 0 a 1,1 0 1,0 2,0 a 1,1 0 1,0 -2,0 M 436.44 272.47285714285715 m -0.5, 0 a 0.5,0.5 0 1,0 1,0 a 0.5,0.5 0 1,0 -1,0  M436.44 272.47285714285715 L436.44 272.47285714285715 448.44 272.47285714285715 M442.44 278.47285714285715 L442.44 278.47285714285715 442.44 266.47285714285715" id="h1592081564" class="r"></path><path d="M 1030 285.33000000000004 m -1, 0 a 1,1 0 1,0 2,0 a 1,1 0 1,0 -2,0 M 1030 285.33000000000004 m -0.5, 0 a 0.5,0.5 0 1,0 1,0 a 0.5,0.5 0 1,0 -1,0  M1030 285.33000000000004 L1030 285.33000000000004 1018 285.33000000000004 M 1030 291.33000000000004 m -1, 0 a 1,1 0 1,0 2,0 a 1,1 0 1,0 -2,0 M 1030 291.33000000000004 m -0.5, 0 a 0.5,0.5 0 1,0 1,0 a 0.5,0.5 0 1,0 -1,0  M1030 291.33000000000004 L1030 291.33000000000004 1023 285.33000000000004 1030 279.33000000000004 M 1030 279.33000000000004 m -1, 0 a 1,1 0 1,0 2,0 a 1,1 0 1,0 -2,0 M 1030 279.33000000000004 m -0.5, 0 a 0.5,0.5 0 1,0 1,0 a 0.5,0.5 0 1,0 -1,0  M1018 285.33000000000004 Q 991.68 285.33000000000004, 965.36 272 T 912.71 258.66999999999996 M 900.71 258.66999999999996 m -1, 0 a 1,1 0 1,0 2,0 a 1,1 0 1,0 -2,0 M 900.71 258.66999999999996 m -0.5, 0 a 0.5,0.5 0 1,0 1,0 a 0.5,0.5 0 1,0 -1,0  M900.71 258.66999999999996 L900.71 258.66999999999996 912.71 258.66999999999996 M906.71 264.66999999999996 L906.71 264.66999999999996 906.71 252.66999999999996" id="h2367648833" class="r"></path><path d="M 1030 310.33000000000004 m -1, 0 a 1,1 0 1,0 2,0 a 1,1 0 1,0 -2,0 M 1030 310.33000000000004 m -0.5, 0 a 0.5,0.5 0 1,0 1,0 a 0.5,0.5 0 1,0 -1,0  M1030 310.33000000000004 L1030 310.33000000000004 1018 310.33000000000004 M 1030 316.33000000000004 m -1, 0 a 1,1 0 1,0 2,0 a 1,1 0 1,0 -2,0 M 1030 316.33000000000004 m -0.5, 0 a 0.5,0.5 0 1,0 1,0 a 0.5,0.5 0 1,0 -1,0  M1030 316.33000000000004 L1030 316.33000000000004 1023 310.33000000000004 1030 304.33000000000004 M 1030 304.33000000000004 m -1, 0 a 1,1 0 1,0 2,0 a 1,1 0 1,0 -2,0 M 1030 304.33000000000004 m -0.5, 0 a 0.5,0.5 0 1,0 1,0 a 0.5,0.5 0 1,0 -1,0  M1018 310.33000000000004 Q 991.68 310.33000000000004, 965.36 284.5 T 912.71 258.66999999999996 M 900.71 258.66999999999996 m -1, 0 a 1,1 0 1,0 2,0 a 1,1 0 1,0 -2,0 M 900.71 258.66999999999996 m -0.5, 0 a 0.5,0.5 0 1,0 1,0 a 0.5,0.5 0 1,0 -1,0  M900.71 258.66999999999996 L900.71 258.66999999999996 912.71 258.66999999999996 M906.71 264.66999999999996 L906.71 264.66999999999996 906.71 252.66999999999996" id="h2093702346" class="r"></path></g><g class="hrs"></g><g class="ts"><svg width="108.04" height="125" x="530" y="166.67" id="h242094811" class="t"><rect height="40" width="108.04" class="th"></rect><text x="13" y="25" class="tht">film_likes</text><rect height="85" width="108.04" class="t-bg" y="40"></rect><text x="13" y="61" class="tf pk">id<tspan x="95.04" class="ty">long</tspan></text><path d="M7,14A2,2 0 0,1 5,12A2,2 0 0,1 7,10A2,2 0 0,1 9,12A2,2 0 0,1 7,14M12.65,10C11.83,7.67 9.61,6 7, 6A6, 6 0 0, 0 1, 12A6, 6 0 0, 0 7, 18C9.61, 18 11.83, 16.33 12.65, 14H17V18H21V14H23V10H12.65Z" class="i pk" transform="translate(52.352500000000006, 48) scale(0.65)"></path><text x="13" y="86" class="tf fk">user_id<tspan x="95.04" class="ty">long</tspan></text><text x="13" y="111" class="tf fk">film_id<tspan x="95.04" class="ty">long</tspan></text></svg><svg width="144.04" height="175" x="756.67" y="201.67" id="h2948373614" class="t"><rect height="40" width="144.04" class="th"></rect><text x="13" y="25" class="tht">users</text><rect height="135" width="144.04" class="t-bg" y="40"></rect><text x="13" y="61" class="tf pk">id<tspan x="131.04" class="ty">long</tspan></text><path d="M7,14A2,2 0 0,1 5,12A2,2 0 0,1 7,10A2,2 0 0,1 9,12A2,2 0 0,1 7,14M12.65,10C11.83,7.67 9.61,6 7, 6A6, 6 0 0, 0 1, 12A6, 6 0 0, 0 7, 18C9.61, 18 11.83, 16.33 12.65, 14H17V18H21V14H23V10H12.65Z" class="i pk" transform="translate(88.35249999999999, 48) scale(0.65)"></path><text x="13" y="86" class="tf">name<tspan x="131.04" class="ty">varchar</tspan></text><text x="13" y="111" class="tf">login<tspan x="131.04" class="ty">varchar</tspan></text><text x="13" y="136" class="tf">email<tspan x="131.04" class="ty">varchar</tspan></text><text x="13" y="161" class="tf">birthday<tspan x="131.04" class="ty">timestamp</tspan></text></svg><svg width="129.72" height="150" x="1030" y="203.33" id="h1748620893" class="t"><rect height="40" width="129.72" class="th"></rect><text x="13" y="25" class="tht">friends</text><rect height="110" width="129.72" class="t-bg" y="40"></rect><text x="13" y="61" class="tf pk">id<tspan x="116.72" class="ty">long</tspan></text><path d="M7,14A2,2 0 0,1 5,12A2,2 0 0,1 7,10A2,2 0 0,1 9,12A2,2 0 0,1 7,14M12.65,10C11.83,7.67 9.61,6 7, 6A6, 6 0 0, 0 1, 12A6, 6 0 0, 0 7, 18C9.61, 18 11.83, 16.33 12.65, 14H17V18H21V14H23V10H12.65Z" class="i pk" transform="translate(74.0325, 48) scale(0.65)"></path><text x="13" y="86" class="tf fk">user_id<tspan x="116.72" class="ty">long</tspan></text><path d="M814.545 581.818v-23.273H535.273v-93.09h-46.546v93.09H209.455v139.637H256V605.09h232.727v93.09h46.546v-93.09H768v93.09h46.545V581.819zM674.91 465.455H349.091V139.636h325.818v325.819zM325.82 884.364H139.635V698.182h186.182v186.182z m279.272 0H418.909V698.182h186.182v186.182z m279.273 0H698.182V698.182h186.182v186.182zM395.636 418.909h232.728V186.182H395.636v232.727zM186.182 837.82h93.09v-93.092h-93.09v93.091z m279.273 0h93.09v-93.092h-93.09v93.091z m279.272 0h93.091v-93.092h-93.09v93.091z" class="i ix" transform="translate(79.0325, 75) scale(0.014)"></path><text x="13" y="111" class="tf fk">friend_id<tspan x="116.72" class="ty">long</tspan></text><path d="M814.545 581.818v-23.273H535.273v-93.09h-46.546v93.09H209.455v139.637H256V605.09h232.727v93.09h46.546v-93.09H768v93.09h46.545V581.819zM674.91 465.455H349.091V139.636h325.818v325.819zM325.82 884.364H139.635V698.182h186.182v186.182z m279.272 0H418.909V698.182h186.182v186.182z m279.273 0H698.182V698.182h186.182v186.182zM395.636 418.909h232.728V186.182H395.636v232.727zM186.182 837.82h93.09v-93.092h-93.09v93.091z m279.273 0h93.09v-93.092h-93.09v93.091z m279.272 0h93.091v-93.092h-93.09v93.091z" class="i ix" transform="translate(79.0325, 100) scale(0.014)"></path><text x="13" y="136" class="tf">status<tspan x="116.72" class="ty">varchar</tspan></text></svg><svg width="170.73" height="200" x="265.71428571428567" y="215.47285714285718" id="h907613820" class="t"><rect height="40" width="170.73" class="th"></rect><text x="13" y="25" class="tht">films</text><rect height="160" width="170.73" class="t-bg" y="40"></rect><text x="13" y="61" class="tf pk">id<tspan x="157.73" class="ty">long</tspan></text><path d="M7,14A2,2 0 0,1 5,12A2,2 0 0,1 7,10A2,2 0 0,1 9,12A2,2 0 0,1 7,14M12.65,10C11.83,7.67 9.61,6 7, 6A6, 6 0 0, 0 1, 12A6, 6 0 0, 0 7, 18C9.61, 18 11.83, 16.33 12.65, 14H17V18H21V14H23V10H12.65Z" class="i pk" transform="translate(115.04249999999999, 48) scale(0.65)"></path><text x="13" y="86" class="tf">name<tspan x="157.73" class="ty">varchar(200)</tspan></text><text x="13" y="111" class="tf fk">rating_id<tspan x="157.73" class="ty">long</tspan></text><text x="13" y="136" class="tf">description<tspan x="157.73" class="ty">varchar</tspan></text><text x="13" y="161" class="tf">release_date<tspan x="157.73" class="ty">timestamp</tspan></text><text x="13" y="186" class="tf">duration<tspan x="157.73" class="ty">int</tspan></text></svg><svg width="144.04" height="125" x="307.21571428571434" y="458.6442857142857" id="h2037942479" class="t"><rect height="40" width="144.04" class="th"></rect><text x="13" y="25" class="tht">rating</text><rect height="85" width="144.04" class="t-bg" y="40"></rect><text x="13" y="61" class="tf pk">id<tspan x="131.04" class="ty">long</tspan></text><path d="M7,14A2,2 0 0,1 5,12A2,2 0 0,1 7,10A2,2 0 0,1 9,12A2,2 0 0,1 7,14M12.65,10C11.83,7.67 9.61,6 7, 6A6, 6 0 0, 0 1, 12A6, 6 0 0, 0 7, 18C9.61, 18 11.83, 16.33 12.65, 14H17V18H21V14H23V10H12.65Z" class="i pk" transform="translate(88.35249999999999, 48) scale(0.65)"></path><text x="13" y="86" class="tf">name<tspan x="131.04" class="ty">varchar</tspan></text><text x="13" y="111" class="tf">description<tspan x="131.04" class="ty">varchar</tspan></text></svg><svg width="115.39" height="125" x="61.66571428571429" y="197.86" id="h1016190631" class="t"><rect height="40" width="115.39" class="th"></rect><text x="13" y="25" class="tht">film_genre</text><rect height="85" width="115.39" class="t-bg" y="40"></rect><text x="13" y="61" class="tf pk">id<tspan x="102.39" class="ty">long</tspan></text><path d="M7,14A2,2 0 0,1 5,12A2,2 0 0,1 7,10A2,2 0 0,1 9,12A2,2 0 0,1 7,14M12.65,10C11.83,7.67 9.61,6 7, 6A6, 6 0 0, 0 1, 12A6, 6 0 0, 0 7, 18C9.61, 18 11.83, 16.33 12.65, 14H17V18H21V14H23V10H12.65Z" class="i pk" transform="translate(59.7025, 48) scale(0.65)"></path><text x="13" y="86" class="tf fk">film_id<tspan x="102.39" class="ty">long</tspan></text><text x="13" y="111" class="tf fk">genre_id<tspan x="102.39" class="ty">long</tspan></text></svg><svg width="116.03" height="100" x="56.4271428571428" y="462.1471428571423" id="h1632618054" class="t"><rect height="40" width="116.03" class="th"></rect><text x="13" y="25" class="tht">genres</text><rect height="60" width="116.03" class="t-bg" y="40"></rect><text x="13" y="61" class="tf pk">id<tspan x="103.03" class="ty">long</tspan></text><path d="M7,14A2,2 0 0,1 5,12A2,2 0 0,1 7,10A2,2 0 0,1 9,12A2,2 0 0,1 7,14M12.65,10C11.83,7.67 9.61,6 7, 6A6, 6 0 0, 0 1, 12A6, 6 0 0, 0 7, 18C9.61, 18 11.83, 16.33 12.65, 14H17V18H21V14H23V10H12.65Z" class="i pk" transform="translate(60.3425, 48) scale(0.65)"></path><text x="13" y="86" class="tf">name<tspan x="103.03" class="ty">varchar</tspan></text></svg></g></g><text class="qdbd-link" x="10" y="20">www.quickdatabasediagrams.com</text></svg>