<svg class="diagram-root" style="background: #f5f6f6" xmlns="http://www.w3.org/2000/svg" xmlns:xlink="http://www.w3.org/1999/xlink"><style>.diagram-root { font-family: "Helvetica Neue", sans-serif; font-size: 12px; } .t { overflow: visible; } .t-bg { y: 40; fill: #fff;   } .th { fill: #005aa0;   } .tht { fill: #fff; font-size: 14px;  } .tf { fill: #323c46; overflow: visible; } .tf.pk { fill: #005aa0; font-weight: bold; } .tf.fk { font-weight: bold; } .ty { fill: #adb1b5; font-weight: normal; text-anchor: end; } .r { fill: transparent; stroke: #c3c3c3; stroke-width: 1; } .l { stroke: 1; } .i { fill: #c2c7ce; stroke: #c2c7ce; } .i.ix { fill: #afb3b6; stroke: #000; } .fa { fill: transparent; overflow: visible; } .fa .bg.hover { fill: #f7f7f7; } .c { cy: 12; r: 4; stroke: #d2d2dc; fill: #d2d2dc; } .hr { fill: transparent; stroke: #323c46; stroke-opacity: 0.035; stroke-width: 13; } .dc { stroke: #fa5a3c; fill: #fa5a3c; } .x { stroke: white; stroke-width: 1; } .hl .th { fill: #1b9bff; } .hl .tht {  } .fhl .bg { fill: #e7f4ff; } .fhls .bg {  } .r.hl { stroke: #1b9bff; } .dim { opacity: 0.25; }</style><g class="drawing-wrapper" transform="translate(-18.240000000000002, -146.67) scale(1,1)"><g class="rs"><path d="M 434.69 308.72 m -1, 0 a 1,1 0 1,0 2,0 a 1,1 0 1,0 -2,0 M 434.69 308.72 m -0.5, 0 a 0.5,0.5 0 1,0 1,0 a 0.5,0.5 0 1,0 -1,0  M434.69 308.72 L434.69 308.72 446.69 308.72 M440.69 314.72 L440.69 314.72 440.69 302.72 M446.69 308.72 C 496.69 308.72, 504.598 532.64, 433.51 532.64 M 421.51 532.64 m -1, 0 a 1,1 0 1,0 2,0 a 1,1 0 1,0 -2,0 M 421.51 532.64 m -0.5, 0 a 0.5,0.5 0 1,0 1,0 a 0.5,0.5 0 1,0 -1,0  M421.51 532.64 L421.51 532.64 433.51 532.64 M427.51 538.64 L427.51 538.64 427.51 526.64" id="h328463163" class="r"></path><path d="M 175.63 258.78999999999996 m -1, 0 a 1,1 0 1,0 2,0 a 1,1 0 1,0 -2,0 M 175.63 258.78999999999996 m -0.5, 0 a 0.5,0.5 0 1,0 1,0 a 0.5,0.5 0 1,0 -1,0  M175.63 258.78999999999996 L175.63 258.78999999999996 187.63 258.78999999999996 M 175.63 264.78999999999996 m -1, 0 a 1,1 0 1,0 2,0 a 1,1 0 1,0 -2,0 M 175.63 264.78999999999996 m -0.5, 0 a 0.5,0.5 0 1,0 1,0 a 0.5,0.5 0 1,0 -1,0  M175.63 264.78999999999996 L175.63 264.78999999999996 182.63 258.78999999999996 175.63 252.78999999999996 M 175.63 252.78999999999996 m -1, 0 a 1,1 0 1,0 2,0 a 1,1 0 1,0 -2,0 M 175.63 252.78999999999996 m -0.5, 0 a 0.5,0.5 0 1,0 1,0 a 0.5,0.5 0 1,0 -1,0  M187.63 258.78999999999996 Q 203.72 258.78999999999996, 219.8 258.76 T 251.95999999999998 258.72 M 263.96 258.72 m -1, 0 a 1,1 0 1,0 2,0 a 1,1 0 1,0 -2,0 M 263.96 258.72 m -0.5, 0 a 0.5,0.5 0 1,0 1,0 a 0.5,0.5 0 1,0 -1,0  M263.96 258.72 L263.96 258.72 251.95999999999998 258.72 M257.96 264.72 L257.96 264.72 257.96 252.72000000000003" id="h2592984026" class="r"></path><path d="M 175.63 283.78999999999996 m -1, 0 a 1,1 0 1,0 2,0 a 1,1 0 1,0 -2,0 M 175.63 283.78999999999996 m -0.5, 0 a 0.5,0.5 0 1,0 1,0 a 0.5,0.5 0 1,0 -1,0  M175.63 283.78999999999996 L175.63 283.78999999999996 187.63 283.78999999999996 M 175.63 289.78999999999996 m -1, 0 a 1,1 0 1,0 2,0 a 1,1 0 1,0 -2,0 M 175.63 289.78999999999996 m -0.5, 0 a 0.5,0.5 0 1,0 1,0 a 0.5,0.5 0 1,0 -1,0  M175.63 289.78999999999996 L175.63 289.78999999999996 182.63 283.78999999999996 175.63 277.78999999999996 M 175.63 277.78999999999996 m -1, 0 a 1,1 0 1,0 2,0 a 1,1 0 1,0 -2,0 M 175.63 277.78999999999996 m -0.5, 0 a 0.5,0.5 0 1,0 1,0 a 0.5,0.5 0 1,0 -1,0  M187.63 283.78999999999996 C 237.63 283.78999999999996, 239.53199999999998 457.9, 184.46 457.9 M 172.46 457.9 m -1, 0 a 1,1 0 1,0 2,0 a 1,1 0 1,0 -2,0 M 172.46 457.9 m -0.5, 0 a 0.5,0.5 0 1,0 1,0 a 0.5,0.5 0 1,0 -1,0  M172.46 457.9 L172.46 457.9 184.46 457.9 M178.46 463.9 L178.46 463.9 178.46 451.9" id="h2903670343" class="r"></path><path d="M 660.54 233.67 m -1, 0 a 1,1 0 1,0 2,0 a 1,1 0 1,0 -2,0 M 660.54 233.67 m -0.5, 0 a 0.5,0.5 0 1,0 1,0 a 0.5,0.5 0 1,0 -1,0  M660.54 233.67 L660.54 233.67 672.54 233.67 M 660.54 239.67 m -1, 0 a 1,1 0 1,0 2,0 a 1,1 0 1,0 -2,0 M 660.54 239.67 m -0.5, 0 a 0.5,0.5 0 1,0 1,0 a 0.5,0.5 0 1,0 -1,0  M660.54 239.67 L660.54 239.67 667.54 233.67 660.54 227.67 M 660.54 227.67 m -1, 0 a 1,1 0 1,0 2,0 a 1,1 0 1,0 -2,0 M 660.54 227.67 m -0.5, 0 a 0.5,0.5 0 1,0 1,0 a 0.5,0.5 0 1,0 -1,0  M672.54 233.67 C 733.6289954467136 233.67, 729.0269954467135 379.92, 680.21 379.92 M 668.21 379.92 m -1, 0 a 1,1 0 1,0 2,0 a 1,1 0 1,0 -2,0 M 668.21 379.92 m -0.5, 0 a 0.5,0.5 0 1,0 1,0 a 0.5,0.5 0 1,0 -1,0  M668.21 379.92 L668.21 379.92 680.21 379.92 M674.21 385.92 L674.21 385.92 674.21 373.92" id="h2451324670" class="r"></path><path d="M 532.5 258.66999999999996 m -1, 0 a 1,1 0 1,0 2,0 a 1,1 0 1,0 -2,0 M 532.5 258.66999999999996 m -0.5, 0 a 0.5,0.5 0 1,0 1,0 a 0.5,0.5 0 1,0 -1,0  M532.5 258.66999999999996 L532.5 258.66999999999996 520.5 258.66999999999996 M 532.5 264.66999999999996 m -1, 0 a 1,1 0 1,0 2,0 a 1,1 0 1,0 -2,0 M 532.5 264.66999999999996 m -0.5, 0 a 0.5,0.5 0 1,0 1,0 a 0.5,0.5 0 1,0 -1,0  M532.5 264.66999999999996 L532.5 264.66999999999996 525.5 258.66999999999996 532.5 252.66999999999996 M 532.5 252.66999999999996 m -1, 0 a 1,1 0 1,0 2,0 a 1,1 0 1,0 -2,0 M 532.5 252.66999999999996 m -0.5, 0 a 0.5,0.5 0 1,0 1,0 a 0.5,0.5 0 1,0 -1,0  M520.5 258.66999999999996 Q 502.05 258.66999999999996, 483.6 258.7 T 446.69 258.72 M 434.69 258.72 m -1, 0 a 1,1 0 1,0 2,0 a 1,1 0 1,0 -2,0 M 434.69 258.72 m -0.5, 0 a 0.5,0.5 0 1,0 1,0 a 0.5,0.5 0 1,0 -1,0  M434.69 258.72 L434.69 258.72 446.69 258.72 M440.69 264.72 L440.69 264.72 440.69 252.72000000000003" id="h1592081564" class="r"></path><path d="M 665.97 610.33 m -1, 0 a 1,1 0 1,0 2,0 a 1,1 0 1,0 -2,0 M 665.97 610.33 m -0.5, 0 a 0.5,0.5 0 1,0 1,0 a 0.5,0.5 0 1,0 -1,0  M665.97 610.33 L665.97 610.33 677.97 610.33 M 665.97 616.33 m -1, 0 a 1,1 0 1,0 2,0 a 1,1 0 1,0 -2,0 M 665.97 616.33 m -0.5, 0 a 0.5,0.5 0 1,0 1,0 a 0.5,0.5 0 1,0 -1,0  M665.97 616.33 L665.97 616.33 672.97 610.33 665.97 604.33 M 665.97 604.33 m -1, 0 a 1,1 0 1,0 2,0 a 1,1 0 1,0 -2,0 M 665.97 604.33 m -0.5, 0 a 0.5,0.5 0 1,0 1,0 a 0.5,0.5 0 1,0 -1,0  M677.97 610.33 C 731.5540000000001 610.33, 730.21 379.92, 680.21 379.92 M 668.21 379.92 m -1, 0 a 1,1 0 1,0 2,0 a 1,1 0 1,0 -2,0 M 668.21 379.92 m -0.5, 0 a 0.5,0.5 0 1,0 1,0 a 0.5,0.5 0 1,0 -1,0  M668.21 379.92 L668.21 379.92 680.21 379.92 M674.21 385.92 L674.21 385.92 674.21 373.92" id="h2367648833" class="r"></path><path d="M 665.97 635.33 m -1, 0 a 1,1 0 1,0 2,0 a 1,1 0 1,0 -2,0 M 665.97 635.33 m -0.5, 0 a 0.5,0.5 0 1,0 1,0 a 0.5,0.5 0 1,0 -1,0  M665.97 635.33 L665.97 635.33 677.97 635.33 M 665.97 641.33 m -1, 0 a 1,1 0 1,0 2,0 a 1,1 0 1,0 -2,0 M 665.97 641.33 m -0.5, 0 a 0.5,0.5 0 1,0 1,0 a 0.5,0.5 0 1,0 -1,0  M665.97 641.33 L665.97 641.33 672.97 635.33 665.97 629.33 M 665.97 629.33 m -1, 0 a 1,1 0 1,0 2,0 a 1,1 0 1,0 -2,0 M 665.97 629.33 m -0.5, 0 a 0.5,0.5 0 1,0 1,0 a 0.5,0.5 0 1,0 -1,0  M677.97 635.33 C 731.5540000000001 635.33, 730.21 379.92, 680.21 379.92 M 668.21 379.92 m -1, 0 a 1,1 0 1,0 2,0 a 1,1 0 1,0 -2,0 M 668.21 379.92 m -0.5, 0 a 0.5,0.5 0 1,0 1,0 a 0.5,0.5 0 1,0 -1,0  M668.21 379.92 L668.21 379.92 680.21 379.92 M674.21 385.92 L674.21 385.92 674.21 373.92" id="h2093702346" class="r"></path></g><g class="hrs"></g><g class="ts"><svg width="144.04" height="175" x="524.17" y="322.92" id="h2948373614" class="t"><rect height="40" width="144.04" class="th"></rect><text x="13" y="25" class="tht">users</text><rect height="135" width="144.04" class="t-bg" y="40"></rect><text x="13" y="61" class="tf pk">id<tspan x="131.04" class="ty">long</tspan></text><path d="M7,14A2,2 0 0,1 5,12A2,2 0 0,1 7,10A2,2 0 0,1 9,12A2,2 0 0,1 7,14M12.65,10C11.83,7.67 9.61,6 7, 6A6, 6 0 0, 0 1, 12A6, 6 0 0, 0 7, 18C9.61, 18 11.83, 16.33 12.65, 14H17V18H21V14H23V10H12.65Z" class="i pk" transform="translate(88.35249999999999, 48) scale(0.65)"></path><text x="13" y="86" class="tf">name<tspan x="131.04" class="ty">varchar</tspan></text><text x="13" y="111" class="tf">login<tspan x="131.04" class="ty">varchar</tspan></text><text x="13" y="136" class="tf">email<tspan x="131.04" class="ty">varchar</tspan></text><text x="13" y="161" class="tf">birthday<tspan x="131.04" class="ty">timestamp</tspan></text></svg><svg width="129.72" height="150" x="536.25" y="528.33" id="h1748620893" class="t"><rect height="40" width="129.72" class="th"></rect><text x="13" y="25" class="tht">friends</text><rect height="110" width="129.72" class="t-bg" y="40"></rect><text x="13" y="61" class="tf pk">id<tspan x="116.72" class="ty">long</tspan></text><path d="M7,14A2,2 0 0,1 5,12A2,2 0 0,1 7,10A2,2 0 0,1 9,12A2,2 0 0,1 7,14M12.65,10C11.83,7.67 9.61,6 7, 6A6, 6 0 0, 0 1, 12A6, 6 0 0, 0 7, 18C9.61, 18 11.83, 16.33 12.65, 14H17V18H21V14H23V10H12.65Z" class="i pk" transform="translate(74.0325, 48) scale(0.65)"></path><text x="13" y="86" class="tf fk">user_id<tspan x="116.72" class="ty">long</tspan></text><path d="M814.545 581.818v-23.273H535.273v-93.09h-46.546v93.09H209.455v139.637H256V605.09h232.727v93.09h46.546v-93.09H768v93.09h46.545V581.819zM674.91 465.455H349.091V139.636h325.818v325.819zM325.82 884.364H139.635V698.182h186.182v186.182z m279.272 0H418.909V698.182h186.182v186.182z m279.273 0H698.182V698.182h186.182v186.182zM395.636 418.909h232.728V186.182H395.636v232.727zM186.182 837.82h93.09v-93.092h-93.09v93.091z m279.273 0h93.09v-93.092h-93.09v93.091z m279.272 0h93.091v-93.092h-93.09v93.091z" class="i ix" transform="translate(79.0325, 75) scale(0.014)"></path><text x="13" y="111" class="tf fk">friend_id<tspan x="116.72" class="ty">long</tspan></text><path d="M814.545 581.818v-23.273H535.273v-93.09h-46.546v93.09H209.455v139.637H256V605.09h232.727v93.09h46.546v-93.09H768v93.09h46.545V581.819zM674.91 465.455H349.091V139.636h325.818v325.819zM325.82 884.364H139.635V698.182h186.182v186.182z m279.272 0H418.909V698.182h186.182v186.182z m279.273 0H698.182V698.182h186.182v186.182zM395.636 418.909h232.728V186.182H395.636v232.727zM186.182 837.82h93.09v-93.092h-93.09v93.091z m279.273 0h93.09v-93.092h-93.09v93.091z m279.272 0h93.091v-93.092h-93.09v93.091z" class="i ix" transform="translate(79.0325, 100) scale(0.014)"></path><text x="13" y="136" class="tf">status<tspan x="116.72" class="ty">varchar</tspan></text></svg><svg width="116.03" height="100" x="56.43" y="400.9" id="h1632618054" class="t"><rect height="40" width="116.03" class="th"></rect><text x="13" y="25" class="tht">genres</text><rect height="60" width="116.03" class="t-bg" y="40"></rect><text x="13" y="61" class="tf pk">id<tspan x="103.03" class="ty">long</tspan></text><path d="M7,14A2,2 0 0,1 5,12A2,2 0 0,1 7,10A2,2 0 0,1 9,12A2,2 0 0,1 7,14M12.65,10C11.83,7.67 9.61,6 7, 6A6, 6 0 0, 0 1, 12A6, 6 0 0, 0 7, 18C9.61, 18 11.83, 16.33 12.65, 14H17V18H21V14H23V10H12.65Z" class="i pk" transform="translate(60.3425, 48) scale(0.65)"></path><text x="13" y="86" class="tf">name<tspan x="103.03" class="ty">varchar</tspan></text></svg><svg width="144.04" height="125" x="277.47" y="475.64" id="h2037942479" class="t"><rect height="40" width="144.04" class="th"></rect><text x="13" y="25" class="tht">rating</text><rect height="85" width="144.04" class="t-bg" y="40"></rect><text x="13" y="61" class="tf pk">id<tspan x="131.04" class="ty">long</tspan></text><path d="M7,14A2,2 0 0,1 5,12A2,2 0 0,1 7,10A2,2 0 0,1 9,12A2,2 0 0,1 7,14M12.65,10C11.83,7.67 9.61,6 7, 6A6, 6 0 0, 0 1, 12A6, 6 0 0, 0 7, 18C9.61, 18 11.83, 16.33 12.65, 14H17V18H21V14H23V10H12.65Z" class="i pk" transform="translate(88.35249999999999, 48) scale(0.65)"></path><text x="13" y="86" class="tf">name<tspan x="131.04" class="ty">varchar</tspan></text><text x="13" y="111" class="tf">description<tspan x="131.04" class="ty">varchar</tspan></text></svg><svg width="170.73" height="200" x="263.96" y="201.72" id="h907613820" class="t"><rect height="40" width="170.73" class="th"></rect><text x="13" y="25" class="tht">films</text><rect height="160" width="170.73" class="t-bg" y="40"></rect><text x="13" y="61" class="tf pk">id<tspan x="157.73" class="ty">long</tspan></text><path d="M7,14A2,2 0 0,1 5,12A2,2 0 0,1 7,10A2,2 0 0,1 9,12A2,2 0 0,1 7,14M12.65,10C11.83,7.67 9.61,6 7, 6A6, 6 0 0, 0 1, 12A6, 6 0 0, 0 7, 18C9.61, 18 11.83, 16.33 12.65, 14H17V18H21V14H23V10H12.65Z" class="i pk" transform="translate(115.04249999999999, 48) scale(0.65)"></path><text x="13" y="86" class="tf">name<tspan x="157.73" class="ty">varchar(200)</tspan></text><text x="13" y="111" class="tf fk">rating_id<tspan x="157.73" class="ty">long</tspan></text><text x="13" y="136" class="tf">description<tspan x="157.73" class="ty">varchar</tspan></text><text x="13" y="161" class="tf">release_date<tspan x="157.73" class="ty">timestamp</tspan></text><text x="13" y="186" class="tf">duration<tspan x="157.73" class="ty">int</tspan></text></svg><svg width="135.39" height="100" x="40.24" y="201.79" id="h1016190631" class="t"><rect height="40" width="135.39" class="th"></rect><text x="13" y="25" class="tht">film_genre</text><rect height="60" width="135.39" class="t-bg" y="40"></rect><text x="13" y="61" class="tf pk">film_id<tspan x="122.38999999999999" class="ty">long</tspan></text><path d="M7,14A2,2 0 0,1 5,12A2,2 0 0,1 7,10A2,2 0 0,1 9,12A2,2 0 0,1 7,14M12.65,10C11.83,7.67 9.61,6 7, 6A6, 6 0 0, 0 1, 12A6, 6 0 0, 0 7, 18C9.61, 18 11.83, 16.33 12.65, 14H17V18H21V14H23V10H12.65Z" class="i pk" transform="translate(79.70249999999999, 48) scale(0.65)"></path><text x="13" y="86" class="tf pk">genre_id<tspan x="122.38999999999999" class="ty">long</tspan></text><path d="M7,14A2,2 0 0,1 5,12A2,2 0 0,1 7,10A2,2 0 0,1 9,12A2,2 0 0,1 7,14M12.65,10C11.83,7.67 9.61,6 7, 6A6, 6 0 0, 0 1, 12A6, 6 0 0, 0 7, 18C9.61, 18 11.83, 16.33 12.65, 14H17V18H21V14H23V10H12.65Z" class="i pk" transform="translate(79.70249999999999, 73) scale(0.65)"></path></svg><svg width="128.04" height="100" x="532.5" y="176.67" id="h242094811" class="t"><rect height="40" width="128.04" class="th"></rect><text x="13" y="25" class="tht">film_likes</text><rect height="60" width="128.04" class="t-bg" y="40"></rect><text x="13" y="61" class="tf pk">user_id<tspan x="115.03999999999999" class="ty">long</tspan></text><path d="M7,14A2,2 0 0,1 5,12A2,2 0 0,1 7,10A2,2 0 0,1 9,12A2,2 0 0,1 7,14M12.65,10C11.83,7.67 9.61,6 7, 6A6, 6 0 0, 0 1, 12A6, 6 0 0, 0 7, 18C9.61, 18 11.83, 16.33 12.65, 14H17V18H21V14H23V10H12.65Z" class="i pk" transform="translate(72.35249999999999, 48) scale(0.65)"></path><text x="13" y="86" class="tf pk">film_id<tspan x="115.03999999999999" class="ty">long</tspan></text><path d="M7,14A2,2 0 0,1 5,12A2,2 0 0,1 7,10A2,2 0 0,1 9,12A2,2 0 0,1 7,14M12.65,10C11.83,7.67 9.61,6 7, 6A6, 6 0 0, 0 1, 12A6, 6 0 0, 0 7, 18C9.61, 18 11.83, 16.33 12.65, 14H17V18H21V14H23V10H12.65Z" class="i pk" transform="translate(72.35249999999999, 73) scale(0.65)"></path></svg></g></g><text class="qdbd-link" x="10" y="20">www.quickdatabasediagrams.com</text></svg>