<svg class="diagram-root" style="background: #f5f6f6" xmlns="http://www.w3.org/2000/svg" xmlns:xlink="http://www.w3.org/1999/xlink"><style>.diagram-root { font-family: "Helvetica Neue", sans-serif; font-size: 12px; } .t { overflow: visible; } .t-bg { y: 40; fill: #fff;   } .th { fill: #005aa0;   } .tht { fill: #fff; font-size: 14px;  } .tf { fill: #323c46; overflow: visible; } .tf.pk { fill: #005aa0; font-weight: bold; } .tf.fk { font-weight: bold; } .ty { fill: #adb1b5; font-weight: normal; text-anchor: end; } .r { fill: transparent; stroke: #c3c3c3; stroke-width: 1; } .l { stroke: 1; } .i { fill: #c2c7ce; stroke: #c2c7ce; } .i.ix { fill: #afb3b6; stroke: #000; } .fa { fill: transparent; overflow: visible; } .fa .bg.hover { fill: #f7f7f7; } .c { cy: 12; r: 4; stroke: #d2d2dc; fill: #d2d2dc; } .hr { fill: transparent; stroke: #323c46; stroke-opacity: 0.035; stroke-width: 13; } .dc { stroke: #fa5a3c; fill: #fa5a3c; } .x { stroke: white; stroke-width: 1; } .hl .th { fill: #1b9bff; } .hl .tht {  } .fhl .bg { fill: #e7f4ff; } .fhls .bg {  } .r.hl { stroke: #1b9bff; } .dim { opacity: 0.25; }</style><g class="drawing-wrapper" transform="translate(-10.462222222222223, -146.67) scale(1,1)"><g class="rs"><path d="M 434.69 308.72 m -1, 0 a 1,1 0 1,0 2,0 a 1,1 0 1,0 -2,0 M 434.69 308.72 m -0.5, 0 a 0.5,0.5 0 1,0 1,0 a 0.5,0.5 0 1,0 -1,0  M434.69 308.72 L434.69 308.72 446.69 308.72 M 434.69 314.72 m -1, 0 a 1,1 0 1,0 2,0 a 1,1 0 1,0 -2,0 M 434.69 314.72 m -0.5, 0 a 0.5,0.5 0 1,0 1,0 a 0.5,0.5 0 1,0 -1,0  M434.69 314.72 L434.69 314.72 441.69 308.72 434.69 302.72 M 434.69 302.72 m -1, 0 a 1,1 0 1,0 2,0 a 1,1 0 1,0 -2,0 M 434.69 302.72 m -0.5, 0 a 0.5,0.5 0 1,0 1,0 a 0.5,0.5 0 1,0 -1,0  M446.69 308.72 C 496.69 308.72, 504.598 532.64, 433.51 532.64 M 421.51 532.64 m -1, 0 a 1,1 0 1,0 2,0 a 1,1 0 1,0 -2,0 M 421.51 532.64 m -0.5, 0 a 0.5,0.5 0 1,0 1,0 a 0.5,0.5 0 1,0 -1,0  M421.51 532.64 L421.51 532.64 433.51 532.64 M427.51 538.64 L427.51 538.64 427.51 526.64" id="h328463163" class="r"></path><path d="M 173.85 258.78999999999996 m -1, 0 a 1,1 0 1,0 2,0 a 1,1 0 1,0 -2,0 M 173.85 258.78999999999996 m -0.5, 0 a 0.5,0.5 0 1,0 1,0 a 0.5,0.5 0 1,0 -1,0  M173.85 258.78999999999996 L173.85 258.78999999999996 185.85 258.78999999999996 M 173.85 264.78999999999996 m -1, 0 a 1,1 0 1,0 2,0 a 1,1 0 1,0 -2,0 M 173.85 264.78999999999996 m -0.5, 0 a 0.5,0.5 0 1,0 1,0 a 0.5,0.5 0 1,0 -1,0  M173.85 264.78999999999996 L173.85 264.78999999999996 180.85 258.78999999999996 173.85 252.78999999999996 M 173.85 252.78999999999996 m -1, 0 a 1,1 0 1,0 2,0 a 1,1 0 1,0 -2,0 M 173.85 252.78999999999996 m -0.5, 0 a 0.5,0.5 0 1,0 1,0 a 0.5,0.5 0 1,0 -1,0  M185.85 258.78999999999996 Q 202.38 258.78999999999996, 218.9 258.76 T 251.95999999999998 258.72 M 263.96 258.72 m -1, 0 a 1,1 0 1,0 2,0 a 1,1 0 1,0 -2,0 M 263.96 258.72 m -0.5, 0 a 0.5,0.5 0 1,0 1,0 a 0.5,0.5 0 1,0 -1,0  M263.96 258.72 L263.96 258.72 251.95999999999998 258.72 M257.96 264.72 L257.96 264.72 257.96 252.72000000000003" id="h2592984026" class="r"></path><path d="M 173.85 283.78999999999996 m -1, 0 a 1,1 0 1,0 2,0 a 1,1 0 1,0 -2,0 M 173.85 283.78999999999996 m -0.5, 0 a 0.5,0.5 0 1,0 1,0 a 0.5,0.5 0 1,0 -1,0  M173.85 283.78999999999996 L173.85 283.78999999999996 185.85 283.78999999999996 M 173.85 289.78999999999996 m -1, 0 a 1,1 0 1,0 2,0 a 1,1 0 1,0 -2,0 M 173.85 289.78999999999996 m -0.5, 0 a 0.5,0.5 0 1,0 1,0 a 0.5,0.5 0 1,0 -1,0  M173.85 289.78999999999996 L173.85 289.78999999999996 180.85 283.78999999999996 173.85 277.78999999999996 M 173.85 277.78999999999996 m -1, 0 a 1,1 0 1,0 2,0 a 1,1 0 1,0 -2,0 M 173.85 277.78999999999996 m -0.5, 0 a 0.5,0.5 0 1,0 1,0 a 0.5,0.5 0 1,0 -1,0  M185.85 283.78999999999996 C 235.85 283.78999999999996, 236.684 457.9, 184.46 457.9 M 172.46 457.9 m -1, 0 a 1,1 0 1,0 2,0 a 1,1 0 1,0 -2,0 M 172.46 457.9 m -0.5, 0 a 0.5,0.5 0 1,0 1,0 a 0.5,0.5 0 1,0 -1,0  M172.46 457.9 L172.46 457.9 184.46 457.9 M178.46 463.9 L178.46 463.9 178.46 451.9" id="h2903670343" class="r"></path><path d="M 666.54 233.67 m -1, 0 a 1,1 0 1,0 2,0 a 1,1 0 1,0 -2,0 M 666.54 233.67 m -0.5, 0 a 0.5,0.5 0 1,0 1,0 a 0.5,0.5 0 1,0 -1,0  M666.54 233.67 L666.54 233.67 678.54 233.67 M 666.54 239.67 m -1, 0 a 1,1 0 1,0 2,0 a 1,1 0 1,0 -2,0 M 666.54 239.67 m -0.5, 0 a 0.5,0.5 0 1,0 1,0 a 0.5,0.5 0 1,0 -1,0  M666.54 239.67 L666.54 239.67 673.54 233.67 666.54 227.67 M 666.54 227.67 m -1, 0 a 1,1 0 1,0 2,0 a 1,1 0 1,0 -2,0 M 666.54 227.67 m -0.5, 0 a 0.5,0.5 0 1,0 1,0 a 0.5,0.5 0 1,0 -1,0  M678.54 233.67 C 729.9651781300233 233.67, 728.9631781300233 379.92, 680.21 379.92 M 668.21 379.92 m -1, 0 a 1,1 0 1,0 2,0 a 1,1 0 1,0 -2,0 M 668.21 379.92 m -0.5, 0 a 0.5,0.5 0 1,0 1,0 a 0.5,0.5 0 1,0 -1,0  M668.21 379.92 L668.21 379.92 680.21 379.92 M674.21 385.92 L674.21 385.92 674.21 373.92" id="h2451324670" class="r"></path><path d="M 532.5 258.66999999999996 m -1, 0 a 1,1 0 1,0 2,0 a 1,1 0 1,0 -2,0 M 532.5 258.66999999999996 m -0.5, 0 a 0.5,0.5 0 1,0 1,0 a 0.5,0.5 0 1,0 -1,0  M532.5 258.66999999999996 L532.5 258.66999999999996 520.5 258.66999999999996 M 532.5 264.66999999999996 m -1, 0 a 1,1 0 1,0 2,0 a 1,1 0 1,0 -2,0 M 532.5 264.66999999999996 m -0.5, 0 a 0.5,0.5 0 1,0 1,0 a 0.5,0.5 0 1,0 -1,0  M532.5 264.66999999999996 L532.5 264.66999999999996 525.5 258.66999999999996 532.5 252.66999999999996 M 532.5 252.66999999999996 m -1, 0 a 1,1 0 1,0 2,0 a 1,1 0 1,0 -2,0 M 532.5 252.66999999999996 m -0.5, 0 a 0.5,0.5 0 1,0 1,0 a 0.5,0.5 0 1,0 -1,0  M520.5 258.66999999999996 Q 502.05 258.66999999999996, 483.6 258.7 T 446.69 258.72 M 434.69 258.72 m -1, 0 a 1,1 0 1,0 2,0 a 1,1 0 1,0 -2,0 M 434.69 258.72 m -0.5, 0 a 0.5,0.5 0 1,0 1,0 a 0.5,0.5 0 1,0 -1,0  M434.69 258.72 L434.69 258.72 446.69 258.72 M440.69 264.72 L440.69 264.72 440.69 252.72000000000003" id="h1592081564" class="r"></path><path d="M 676.97 585.33 m -1, 0 a 1,1 0 1,0 2,0 a 1,1 0 1,0 -2,0 M 676.97 585.33 m -0.5, 0 a 0.5,0.5 0 1,0 1,0 a 0.5,0.5 0 1,0 -1,0  M676.97 585.33 L676.97 585.33 688.97 585.33 M 676.97 591.33 m -1, 0 a 1,1 0 1,0 2,0 a 1,1 0 1,0 -2,0 M 676.97 591.33 m -0.5, 0 a 0.5,0.5 0 1,0 1,0 a 0.5,0.5 0 1,0 -1,0  M676.97 591.33 L676.97 591.33 683.97 585.33 676.97 579.33 M 676.97 579.33 m -1, 0 a 1,1 0 1,0 2,0 a 1,1 0 1,0 -2,0 M 676.97 579.33 m -0.5, 0 a 0.5,0.5 0 1,0 1,0 a 0.5,0.5 0 1,0 -1,0  M688.97 585.33 C 738.97 585.33, 744.226 379.92, 680.21 379.92 M 668.21 379.92 m -1, 0 a 1,1 0 1,0 2,0 a 1,1 0 1,0 -2,0 M 668.21 379.92 m -0.5, 0 a 0.5,0.5 0 1,0 1,0 a 0.5,0.5 0 1,0 -1,0  M668.21 379.92 L668.21 379.92 680.21 379.92 M674.21 385.92 L674.21 385.92 674.21 373.92" id="h2367648833" class="r"></path><path d="M 676.97 610.33 m -1, 0 a 1,1 0 1,0 2,0 a 1,1 0 1,0 -2,0 M 676.97 610.33 m -0.5, 0 a 0.5,0.5 0 1,0 1,0 a 0.5,0.5 0 1,0 -1,0  M676.97 610.33 L676.97 610.33 688.97 610.33 M 676.97 616.33 m -1, 0 a 1,1 0 1,0 2,0 a 1,1 0 1,0 -2,0 M 676.97 616.33 m -0.5, 0 a 0.5,0.5 0 1,0 1,0 a 0.5,0.5 0 1,0 -1,0  M676.97 616.33 L676.97 616.33 683.97 610.33 676.97 604.33 M 676.97 604.33 m -1, 0 a 1,1 0 1,0 2,0 a 1,1 0 1,0 -2,0 M 676.97 604.33 m -0.5, 0 a 0.5,0.5 0 1,0 1,0 a 0.5,0.5 0 1,0 -1,0  M688.97 610.33 C 738.97 610.33, 744.226 379.92, 680.21 379.92 M 668.21 379.92 m -1, 0 a 1,1 0 1,0 2,0 a 1,1 0 1,0 -2,0 M 668.21 379.92 m -0.5, 0 a 0.5,0.5 0 1,0 1,0 a 0.5,0.5 0 1,0 -1,0  M668.21 379.92 L668.21 379.92 680.21 379.92 M674.21 385.92 L674.21 385.92 674.21 373.92" id="h2093702346" class="r"></path></g><g class="hrs"></g><g class="ts"><svg width="170.73" height="200" x="263.96" y="201.72" id="h907613820" class="t"><rect height="40" width="170.73" class="th"></rect><text x="13" y="25" class="tht">films</text><rect height="160" width="170.73" class="t-bg" y="40"></rect><text x="13" y="61" class="tf pk">id<tspan x="157.73" class="ty">bigint</tspan></text><path d="M7,14A2,2 0 0,1 5,12A2,2 0 0,1 7,10A2,2 0 0,1 9,12A2,2 0 0,1 7,14M12.65,10C11.83,7.67 9.61,6 7, 6A6, 6 0 0, 0 1, 12A6, 6 0 0, 0 7, 18C9.61, 18 11.83, 16.33 12.65, 14H17V18H21V14H23V10H12.65Z" class="i pk" transform="translate(109.04249999999999, 48) scale(0.65)"></path><text x="13" y="86" class="tf">name<tspan x="157.73" class="ty">varchar(200)</tspan></text><text x="13" y="111" class="tf fk">rating_id<tspan x="157.73" class="ty">bigint</tspan></text><text x="13" y="136" class="tf">description<tspan x="157.73" class="ty">varchar</tspan></text><text x="13" y="161" class="tf">release_date<tspan x="157.73" class="ty">timestamp</tspan></text><text x="13" y="186" class="tf">duration<tspan x="157.73" class="ty">int</tspan></text></svg><svg width="116.03" height="100" x="56.43" y="400.9" id="h1632618054" class="t"><rect height="40" width="116.03" class="th"></rect><text x="13" y="25" class="tht">genres</text><rect height="60" width="116.03" class="t-bg" y="40"></rect><text x="13" y="61" class="tf pk">id<tspan x="103.03" class="ty">bigint</tspan></text><path d="M7,14A2,2 0 0,1 5,12A2,2 0 0,1 7,10A2,2 0 0,1 9,12A2,2 0 0,1 7,14M12.65,10C11.83,7.67 9.61,6 7, 6A6, 6 0 0, 0 1, 12A6, 6 0 0, 0 7, 18C9.61, 18 11.83, 16.33 12.65, 14H17V18H21V14H23V10H12.65Z" class="i pk" transform="translate(54.3425, 48) scale(0.65)"></path><text x="13" y="86" class="tf">name<tspan x="103.03" class="ty">varchar</tspan></text></svg><svg width="144.04" height="125" x="277.47" y="475.64" id="h2037942479" class="t"><rect height="40" width="144.04" class="th"></rect><text x="13" y="25" class="tht">rating</text><rect height="85" width="144.04" class="t-bg" y="40"></rect><text x="13" y="61" class="tf pk">id<tspan x="131.04" class="ty">bigint</tspan></text><path d="M7,14A2,2 0 0,1 5,12A2,2 0 0,1 7,10A2,2 0 0,1 9,12A2,2 0 0,1 7,14M12.65,10C11.83,7.67 9.61,6 7, 6A6, 6 0 0, 0 1, 12A6, 6 0 0, 0 7, 18C9.61, 18 11.83, 16.33 12.65, 14H17V18H21V14H23V10H12.65Z" class="i pk" transform="translate(82.35249999999999, 48) scale(0.65)"></path><text x="13" y="86" class="tf">name<tspan x="131.04" class="ty">varchar</tspan></text><text x="13" y="111" class="tf">description<tspan x="131.04" class="ty">varchar</tspan></text></svg><svg width="141.39" height="100" x="32.46" y="201.79" id="h1016190631" class="t"><rect height="40" width="141.39" class="th"></rect><text x="13" y="25" class="tht">film_genre</text><rect height="60" width="141.39" class="t-bg" y="40"></rect><text x="13" y="61" class="tf pk">film_id<tspan x="128.39" class="ty">bigint</tspan></text><path d="M7,14A2,2 0 0,1 5,12A2,2 0 0,1 7,10A2,2 0 0,1 9,12A2,2 0 0,1 7,14M12.65,10C11.83,7.67 9.61,6 7, 6A6, 6 0 0, 0 1, 12A6, 6 0 0, 0 7, 18C9.61, 18 11.83, 16.33 12.65, 14H17V18H21V14H23V10H12.65Z" class="i pk" transform="translate(79.70249999999999, 48) scale(0.65)"></path><text x="13" y="86" class="tf pk">genre_id<tspan x="128.39" class="ty">bigint</tspan></text><path d="M7,14A2,2 0 0,1 5,12A2,2 0 0,1 7,10A2,2 0 0,1 9,12A2,2 0 0,1 7,14M12.65,10C11.83,7.67 9.61,6 7, 6A6, 6 0 0, 0 1, 12A6, 6 0 0, 0 7, 18C9.61, 18 11.83, 16.33 12.65, 14H17V18H21V14H23V10H12.65Z" class="i pk" transform="translate(79.70249999999999, 73) scale(0.65)"></path></svg><svg width="134.04" height="100" x="532.5" y="176.67" id="h242094811" class="t"><rect height="40" width="134.04" class="th"></rect><text x="13" y="25" class="tht">film_likes</text><rect height="60" width="134.04" class="t-bg" y="40"></rect><text x="13" y="61" class="tf pk">user_id<tspan x="121.03999999999999" class="ty">bigint</tspan></text><path d="M7,14A2,2 0 0,1 5,12A2,2 0 0,1 7,10A2,2 0 0,1 9,12A2,2 0 0,1 7,14M12.65,10C11.83,7.67 9.61,6 7, 6A6, 6 0 0, 0 1, 12A6, 6 0 0, 0 7, 18C9.61, 18 11.83, 16.33 12.65, 14H17V18H21V14H23V10H12.65Z" class="i pk" transform="translate(72.35249999999999, 48) scale(0.65)"></path><text x="13" y="86" class="tf pk">film_id<tspan x="121.03999999999999" class="ty">bigint</tspan></text><path d="M7,14A2,2 0 0,1 5,12A2,2 0 0,1 7,10A2,2 0 0,1 9,12A2,2 0 0,1 7,14M12.65,10C11.83,7.67 9.61,6 7, 6A6, 6 0 0, 0 1, 12A6, 6 0 0, 0 7, 18C9.61, 18 11.83, 16.33 12.65, 14H17V18H21V14H23V10H12.65Z" class="i pk" transform="translate(72.35249999999999, 73) scale(0.65)"></path></svg><svg width="144.04" height="175" x="524.17" y="322.92" id="h2948373614" class="t"><rect height="40" width="144.04" class="th"></rect><text x="13" y="25" class="tht">users</text><rect height="135" width="144.04" class="t-bg" y="40"></rect><text x="13" y="61" class="tf pk">id<tspan x="131.04" class="ty">bigint</tspan></text><path d="M7,14A2,2 0 0,1 5,12A2,2 0 0,1 7,10A2,2 0 0,1 9,12A2,2 0 0,1 7,14M12.65,10C11.83,7.67 9.61,6 7, 6A6, 6 0 0, 0 1, 12A6, 6 0 0, 0 7, 18C9.61, 18 11.83, 16.33 12.65, 14H17V18H21V14H23V10H12.65Z" class="i pk" transform="translate(82.35249999999999, 48) scale(0.65)"></path><text x="13" y="86" class="tf">name<tspan x="131.04" class="ty">varchar</tspan></text><text x="13" y="111" class="tf">login<tspan x="131.04" class="ty">varchar</tspan></text><text x="13" y="136" class="tf">email<tspan x="131.04" class="ty">varchar</tspan></text><text x="13" y="161" class="tf">birthday<tspan x="131.04" class="ty">timestamp</tspan></text></svg><svg width="140.72" height="125" x="536.25" y="528.33" id="h1748620893" class="t"><rect height="40" width="140.72" class="th"></rect><text x="13" y="25" class="tht">friends</text><rect height="85" width="140.72" class="t-bg" y="40"></rect><text x="13" y="61" class="tf pk">user_id<tspan x="127.72" class="ty">bigint</tspan></text><path d="M7,14A2,2 0 0,1 5,12A2,2 0 0,1 7,10A2,2 0 0,1 9,12A2,2 0 0,1 7,14M12.65,10C11.83,7.67 9.61,6 7, 6A6, 6 0 0, 0 1, 12A6, 6 0 0, 0 7, 18C9.61, 18 11.83, 16.33 12.65, 14H17V18H21V14H23V10H12.65Z" class="i pk" transform="translate(79.0325, 48) scale(0.65)"></path><text x="13" y="86" class="tf pk">friend_id<tspan x="127.72" class="ty">bigint</tspan></text><path d="M7,14A2,2 0 0,1 5,12A2,2 0 0,1 7,10A2,2 0 0,1 9,12A2,2 0 0,1 7,14M12.65,10C11.83,7.67 9.61,6 7, 6A6, 6 0 0, 0 1, 12A6, 6 0 0, 0 7, 18C9.61, 18 11.83, 16.33 12.65, 14H17V18H21V14H23V10H12.65Z" class="i pk" transform="translate(79.0325, 73) scale(0.65)"></path><text x="13" y="111" class="tf">status<tspan x="127.72" class="ty">boolean</tspan></text></svg></g></g><text class="qdbd-link" x="10" y="20">www.quickdatabasediagrams.com</text></svg>